<svg width="268" height="272" viewBox="0 0 268 272" fill="none" xmlns="http://www.w3.org/2000/svg">
<path d="M105.375 51.6875C103.292 52.6042 101.312 53.0625 99.4375 53.0625C95.8958 53.0625 93.8542 52.25 93.3125 50.625C96.1458 49.4583 98.9792 47.6042 101.812 45.0625C106.938 40.3958 109.979 36.8333 110.938 34.375H122.562L121.938 37.125C121.396 39.75 121.062 42.8542 120.938 46.4375C120.812 50.0208 120.688 53.2292 120.562 56.0625C120.438 58.8958 120.354 61.8333 120.312 64.875C120.146 72.0417 120.062 78.5 120.062 84.25C120.062 106.167 120.75 119.542 122.125 124.375C122.625 126.167 123.333 128.042 124.25 130H102L103.125 127.188C105.042 122.146 106 107.708 106 83.875C106 70.25 105.792 59.5208 105.375 51.6875Z" fill="white"/>
<path d="M111.188 229.062C106.646 233.188 100.875 235.25 93.875 235.25C87.4583 235.25 82.3958 233.396 78.6875 229.688C74.8542 225.854 72.9375 220.458 72.9375 213.5C72.9375 206.5 73.9583 200.396 76 195.188C78.0417 189.938 80.7292 185.542 84.0625 182C90.6458 175 98.7292 171.312 108.312 170.938C107.979 158.104 107.542 150.75 107 148.875C106.5 146.958 105.979 145.458 105.438 144.375C104.938 143.25 104.354 142.229 103.688 141.312L101.562 138.375H124.375C123.208 142.583 122.521 146.667 122.312 150.625C122.146 154.583 122.021 158.062 121.938 161.062C121.854 164.062 121.792 167.208 121.75 170.5C121.625 176 121.562 181.479 121.562 186.938C121.562 192.354 121.562 196.458 121.562 199.25C121.604 202.042 121.667 204.688 121.75 207.188C121.958 216.562 122.312 222.146 122.812 223.938C123.312 225.688 123.812 227.104 124.312 228.188C124.854 229.229 125.458 230.208 126.125 231.125L128.25 234H112.062L111.188 229.062ZM108.375 211.062C108.583 204.646 108.688 198.646 108.688 193.062C108.688 187.438 108.625 182.083 108.5 177C102.458 177.917 97.625 181.479 94 187.688C90.375 193.854 88.5625 201.625 88.5625 211C88.5625 216.542 88.9792 220.417 89.8125 222.625C90.6875 224.833 91.7083 226.458 92.875 227.5C94.0833 228.5 95.5208 229 97.1875 229C98.8958 229 100.375 228.667 101.625 228C102.917 227.292 104.042 226.271 105 224.938C107.083 222.104 108.208 217.479 108.375 211.062Z" fill="white"/>
<path d="M149.188 72.5C149.188 107.5 153.542 125 162.25 125C170.958 125 175.312 107.5 175.312 72.5C175.312 55.5833 173.021 45.2292 168.438 41.4375C166.771 40.0625 164.708 39.375 162.25 39.375C155.292 39.375 151.146 45.5833 149.812 58C149.396 62.1667 149.188 67 149.188 72.5ZM162.25 131.25C152.5 131.25 144.938 125.833 139.562 115C134.646 105.125 132.188 92.1667 132.188 76.125C132.188 55.7083 137.604 42.4583 148.438 36.375C152.229 34.2083 156.833 33.125 162.25 33.125C172.583 33.125 180.312 37.1667 185.438 45.25C190.021 52.5833 192.312 62.875 192.312 76.125C192.312 98.2083 187.917 114.062 179.125 123.688C174.5 128.729 168.875 131.25 162.25 131.25Z" fill="white"/>
<path d="M165.125 137.125C178.5 137.125 185.188 142.792 185.188 154.125C185.188 163.583 179.771 177 168.938 194.375L157.812 211.875C154.396 217.417 152.688 221.062 152.688 222.812C152.688 224.479 153.167 225.604 154.125 226.188C155.833 227.229 158.375 227.75 161.75 227.75C165.125 227.75 168.083 227.375 170.625 226.625C173.167 225.875 175.521 224.833 177.688 223.5C182.188 220.625 185.188 216.833 186.688 212.125C188.479 214.583 189.375 217.75 189.375 221.625C189.375 225.542 188.979 228.25 188.188 229.75C186.646 232.583 184.125 234 180.625 234H133.875C134.292 231.708 135.917 227.938 138.75 222.688C150 202.271 156.771 189.75 159.062 185.125C161.396 180.5 163.396 176.229 165.062 172.312C168.688 163.646 170.5 156.875 170.5 152C170.5 149.5 169.938 147.646 168.812 146.438C167.729 145.229 166 144.625 163.625 144.625C161.25 144.625 159.146 145.062 157.312 145.938C155.521 146.812 153.833 148 152.25 149.5C150.708 151 149.292 152.729 148 154.688C146.75 156.646 145.646 158.708 144.688 160.875C142.812 165.292 141.646 169.667 141.188 174C137.938 172.375 136.312 166.979 136.312 157.812C136.312 147.854 137.521 140.667 139.938 136.25C140.562 135.125 141.292 134.375 142.125 134C143.458 135.833 144.458 136.958 145.125 137.375C146.25 138.042 147.562 138.375 149.062 138.375C150.604 138.375 151.896 138.312 152.938 138.188C154.021 138.062 155.167 137.917 156.375 137.75C159.417 137.333 162.333 137.125 165.125 137.125Z" fill="white"/>
</svg>
